<svg xmlns="http://www.w3.org/2000/svg" xmlns:xlink="http://www.w3.org/1999/xlink" width="2000" zoomAndPan="magnify" viewBox="0 0 1500 1499.999933" height="2000" preserveAspectRatio="xMidYMid meet" version="1.0"><defs><g/><clipPath id="251ab49cb5"><rect x="0" width="1211" y="0" height="409"/></clipPath><clipPath id="a6bb725e6a"><rect x="0" width="811" y="0" height="254"/></clipPath></defs><rect x="-150" width="1800" fill="#ffffff" y="-149.999993" height="1799.99992" fill-opacity="1"/><rect x="-150" width="1800" fill="#f6f5f5" y="-149.999993" height="1799.99992" fill-opacity="1"/><g transform="matrix(1, 0, 0, 1, 145, 0.000000000000112861)"><g clip-path="url(#251ab49cb5)"><g fill="#385b4f" fill-opacity="1"><g transform="translate(98.045232, 387.00269)"><g><path d="M 6.9375 -22.28125 C 8.195312 -24.070312 8.992188 -25.550781 9.328125 -26.71875 C 9.671875 -27.894531 9.457031 -29.1875 8.6875 -30.59375 C 7.925781 -32 6.285156 -33.660156 3.765625 -35.578125 L -42.5625 -71.015625 L -45.96875 -66.5625 C -48.800781 -62.726562 -49.75 -58.816406 -48.8125 -54.828125 C -47.875 -50.835938 -44.859375 -46.894531 -39.765625 -43 L -44.640625 -36.609375 L -66.125 -53.8125 L -21.296875 -112.421875 L 1 -96.265625 L -3.890625 -89.890625 C -8.984375 -93.785156 -13.632812 -95.6875 -17.84375 -95.59375 C -22.050781 -95.5 -25.554688 -93.554688 -28.359375 -89.765625 L -31.90625 -85.125 L 13.4375 -50.4375 C 17.757812 -47.125 20.5625 -44.773438 21.84375 -43.390625 C 23.269531 -45.660156 25.144531 -48.3125 27.46875 -51.34375 L 34.921875 -45.640625 L 13.3125 -17.40625 Z M 6.9375 -22.28125 "/></g></g></g><g fill="#385b4f" fill-opacity="1"><g transform="translate(186.77612, 280.945048)"><g><path d="M -0.265625 -10.078125 C 1.390625 -11.515625 2.519531 -12.757812 3.125 -13.8125 C 3.738281 -14.875 3.84375 -16.175781 3.4375 -17.71875 C 3.03125 -19.257812 1.835938 -21.269531 -0.140625 -23.75 L -29.28125 -60.15625 C -32.113281 -63.707031 -34.269531 -66.660156 -35.75 -69.015625 L -42.640625 -63.03125 L -48.5 -70.34375 L -21.21875 -92.171875 L -16.203125 -85.90625 C -17.859375 -84.476562 -18.992188 -83.234375 -19.609375 -82.171875 C -20.222656 -81.109375 -20.320312 -79.800781 -19.90625 -78.25 C -19.5 -76.707031 -18.304688 -74.695312 -16.328125 -72.21875 L -4.46875 -57.40625 L 21.671875 -78.328125 L 10.640625 -92.109375 C 7.242188 -96.359375 5.09375 -99.3125 4.1875 -100.96875 L -2.71875 -94.96875 L -8.578125 -102.28125 L 18.71875 -124.125 L 23.734375 -117.859375 C 22.066406 -116.421875 20.925781 -115.171875 20.3125 -114.109375 C 19.707031 -113.054688 19.609375 -111.753906 20.015625 -110.203125 C 20.421875 -108.660156 21.613281 -106.648438 23.59375 -104.171875 L 52.71875 -67.78125 C 55.5625 -64.226562 57.71875 -61.269531 59.1875 -58.90625 C 61.0625 -60.71875 63.367188 -62.71875 66.109375 -64.90625 L 71.96875 -57.59375 L 44.671875 -35.75 L 39.65625 -42.015625 C 41.320312 -43.460938 42.457031 -44.710938 43.0625 -45.765625 C 43.664062 -46.828125 43.765625 -48.128906 43.359375 -49.671875 C 42.953125 -51.210938 41.757812 -53.222656 39.78125 -55.703125 L 27.46875 -71.09375 L 1.546875 -49.890625 L 12.796875 -35.828125 C 15.640625 -32.273438 17.796875 -29.320312 19.265625 -26.96875 C 21.148438 -28.78125 23.453125 -30.773438 26.171875 -32.953125 L 32.03125 -25.640625 L 4.75 -3.8125 Z M -0.265625 -10.078125 "/></g></g></g><g fill="#385b4f" fill-opacity="1"><g transform="translate(314.679116, 189.394689)"><g><path d="M 2.15625 -9.84375 C 4.09375 -10.84375 5.484375 -11.78125 6.328125 -12.65625 C 7.171875 -13.539062 7.578125 -14.78125 7.546875 -16.375 C 7.523438 -17.976562 6.847656 -20.21875 5.515625 -23.09375 L -14.125 -65.40625 C -16.03125 -69.519531 -17.421875 -72.894531 -18.296875 -75.53125 L -26.40625 -71.359375 L -30.34375 -79.859375 L 24.875 -105.5 L 35.453125 -84.375 L 28.171875 -81 C 25.640625 -86.445312 22.578125 -89.613281 18.984375 -90.5 C 15.398438 -91.382812 11.804688 -90.898438 8.203125 -89.046875 L 4.28125 -87.09375 C 2.539062 -86.1875 1.25 -85.289062 0.40625 -84.40625 C -0.433594 -83.53125 -0.804688 -82.265625 -0.703125 -80.609375 C -0.609375 -78.960938 0.0664062 -76.773438 1.328125 -74.046875 L 9.03125 -57.46875 L 21.953125 -63.453125 C 21.296875 -64.679688 19.65625 -67.816406 17.03125 -72.859375 L 25.546875 -76.8125 L 38 -49.984375 L 30.703125 -46.609375 C 29.335938 -49.554688 27.867188 -51.515625 26.296875 -52.484375 C 24.734375 -53.453125 23.117188 -53.796875 21.453125 -53.515625 C 19.796875 -53.234375 17.765625 -52.5 15.359375 -51.3125 L 12.5625 -49.859375 L 20.96875 -31.75 C 22.8125 -27.769531 24.171875 -24.460938 25.046875 -21.828125 L 39.84375 -28.6875 C 43.59375 -30.4375 46.179688 -33.1875 47.609375 -36.9375 C 49.046875 -40.6875 48.484375 -45.320312 45.921875 -50.84375 L 53.109375 -54.1875 L 63.828125 -29.625 L 5.53125 -2.5625 Z M 2.15625 -9.84375 "/></g></g></g><g fill="#385b4f" fill-opacity="1"><g transform="translate(442.18535, 138.893678)"><g/></g></g><g fill="#385b4f" fill-opacity="1"><g transform="translate(533.389207, 119.65284)"><g><path d="M 46.046875 -0.328125 C 37.859375 0.0742188 30.507812 -1.46875 24 -4.96875 C 17.5 -8.46875 12.34375 -13.429688 8.53125 -19.859375 C 4.71875 -26.296875 2.613281 -33.523438 2.21875 -41.546875 C 1.832031 -49.253906 3.109375 -56.695312 6.046875 -63.875 C 8.984375 -71.050781 13.539062 -76.984375 19.71875 -81.671875 C 25.90625 -86.367188 33.5 -88.9375 42.5 -89.375 C 45.75 -89.539062 49.28125 -89.1875 53.09375 -88.3125 C 56.914062 -87.445312 60.457031 -86.164062 63.71875 -84.46875 L 63.84375 -84.46875 L 63.109375 -89.546875 L 72.46875 -90.015625 L 73.875 -61.671875 L 65.96875 -61.28125 C 63.113281 -74.632812 55.960938 -81.109375 44.515625 -80.703125 C 39.085938 -80.441406 34.566406 -78.613281 30.953125 -75.21875 C 27.335938 -71.832031 24.726562 -67.457031 23.125 -62.09375 C 21.519531 -56.738281 20.867188 -51.019531 21.171875 -44.9375 C 21.515625 -37.957031 22.835938 -31.800781 25.140625 -26.46875 C 27.441406 -21.144531 30.570312 -17.050781 34.53125 -14.1875 C 38.488281 -11.332031 43.140625 -10.039062 48.484375 -10.3125 C 53.679688 -10.570312 58.703125 -12.164062 63.546875 -15.09375 C 68.398438 -18.019531 72.421875 -21.875 75.609375 -26.65625 L 81.703125 -21.609375 C 76.722656 -13.953125 71.097656 -8.566406 64.828125 -5.453125 C 58.554688 -2.335938 52.296875 -0.628906 46.046875 -0.328125 Z M 46.046875 -0.328125 "/></g></g></g><g fill="#385b4f" fill-opacity="1"><g transform="translate(676.248525, 119.177104)"><g><path d="M 45.375 10.875 C 35.820312 9.007812 28.351562 5.359375 22.96875 -0.078125 C 17.582031 -5.523438 14.101562 -11.835938 12.53125 -19.015625 C 10.957031 -26.191406 10.90625 -33.519531 12.375 -41 C 13.757812 -48.09375 16.695312 -54.671875 21.1875 -60.734375 C 25.6875 -66.804688 31.523438 -71.390625 38.703125 -74.484375 C 45.890625 -77.585938 53.945312 -78.265625 62.875 -76.515625 C 72.03125 -74.722656 79.304688 -71.046875 84.703125 -65.484375 C 90.109375 -59.921875 93.664062 -53.492188 95.375 -46.203125 C 97.09375 -38.921875 97.257812 -31.734375 95.875 -24.640625 C 94.519531 -17.710938 91.59375 -11.191406 87.09375 -5.078125 C 82.59375 1.023438 76.742188 5.644531 69.546875 8.78125 C 62.359375 11.925781 54.300781 12.625 45.375 10.875 Z M 48.28125 2.375 C 53.46875 3.394531 58.015625 2.59375 61.921875 -0.03125 C 65.828125 -2.664062 68.984375 -6.351562 71.390625 -11.09375 C 73.804688 -15.832031 75.546875 -20.910156 76.609375 -26.328125 C 78.816406 -37.628906 78.582031 -47.015625 75.90625 -54.484375 C 73.238281 -61.953125 68 -66.453125 60.1875 -67.984375 C 54.9375 -69.015625 50.3125 -68.1875 46.3125 -65.5 C 42.320312 -62.8125 39.109375 -59.054688 36.671875 -54.234375 C 34.234375 -49.410156 32.476562 -44.253906 31.40625 -38.765625 C 30.3125 -33.191406 30.015625 -27.457031 30.515625 -21.5625 C 31.015625 -15.675781 32.707031 -10.484375 35.59375 -5.984375 C 38.476562 -1.492188 42.707031 1.289062 48.28125 2.375 Z M 48.28125 2.375 "/></g></g></g><g fill="#385b4f" fill-opacity="1"><g transform="translate(824.298876, 155.982194)"><g><path d="M 37.34375 -53.90625 C 37.550781 -59.71875 38.15625 -63.691406 39.15625 -65.828125 L 33.046875 -68.28125 L 37.015625 -76.765625 L 69.546875 -61.53125 L 66.140625 -54.265625 C 61.367188 -56.679688 58.222656 -56.273438 56.703125 -53.046875 C 56.148438 -51.859375 55.84375 -50.425781 55.78125 -48.75 L 54.25 -19.09375 C 54.15625 -16.625 53.984375 -13.390625 53.734375 -9.390625 C 53.617188 -8.015625 53.421875 -5.015625 53.140625 -0.390625 L 53.25 -0.34375 L 65.671875 -13.0625 L 84.84375 -32.1875 C 88.832031 -36.5 91.910156 -39.140625 94.078125 -40.109375 L 94.125 -40.21875 L 88.21875 -42.5625 L 85.4375 -43.75 L 89.40625 -52.234375 L 114.203125 -40.609375 L 110.796875 -33.34375 C 108.160156 -34.40625 105.5 -34.460938 102.8125 -33.515625 C 100.132812 -32.578125 97.054688 -30.410156 93.578125 -27.015625 L 44 21.421875 L 34.96875 17.1875 Z M 37.34375 -53.90625 "/></g></g></g><g fill="#385b4f" fill-opacity="1"><g transform="translate(952.886329, 224.45055)"><g><path d="M 9.765625 -2.515625 C 11.535156 -1.222656 13.003906 -0.398438 14.171875 -0.046875 C 15.335938 0.296875 16.628906 0.0976562 18.046875 -0.640625 C 19.460938 -1.378906 21.148438 -2.988281 23.109375 -5.46875 L 52.046875 -42.046875 C 54.859375 -45.609375 57.25 -48.375 59.21875 -50.34375 L 51.828125 -55.703125 L 57.640625 -63.0625 L 105.390625 -25.3125 L 91.3125 -6.34375 L 85.015625 -11.328125 C 88.734375 -16.035156 90.179688 -20.191406 89.359375 -23.796875 C 88.535156 -27.398438 86.476562 -30.394531 83.1875 -32.78125 L 79.671875 -35.390625 C 78.097656 -36.535156 76.726562 -37.285156 75.5625 -37.640625 C 74.394531 -38.003906 73.09375 -37.769531 71.65625 -36.9375 C 70.226562 -36.101562 68.582031 -34.503906 66.71875 -32.140625 L 55.375 -17.8125 L 66.546875 -8.984375 C 67.347656 -10.109375 69.410156 -12.976562 72.734375 -17.59375 L 80.09375 -11.78125 L 61.75 11.421875 L 55.453125 6.4375 C 57.460938 3.882812 58.546875 1.691406 58.703125 -0.140625 C 58.867188 -1.984375 58.453125 -3.582031 57.453125 -4.9375 C 56.453125 -6.289062 54.875 -7.769531 52.71875 -9.375 L 50.171875 -11.234375 L 37.796875 4.4375 C 35.078125 7.875 32.734375 10.578125 30.765625 12.546875 L 43.5625 22.65625 C 46.800781 25.21875 50.421875 26.289062 54.421875 25.875 C 58.421875 25.46875 62.304688 22.878906 66.078125 18.109375 L 72.28125 23.03125 L 55.203125 43.65625 L 4.78125 3.78125 Z M 9.765625 -2.515625 "/></g></g></g><g fill="#385b4f" fill-opacity="1"><g transform="translate(1055.230966, 313.004136)"><g><path d="M 57.90625 -4.84375 C 58.695312 -8.039062 59.71875 -11.671875 60.96875 -15.734375 L 60.890625 -15.84375 L 31.34375 7.625 C 27.769531 10.425781 24.796875 12.550781 22.421875 14 C 24.203125 15.894531 26.171875 18.210938 28.328125 20.953125 L 20.953125 26.734375 L 3.828125 4.890625 L 10.15625 -0.0625 C 11.570312 1.613281 12.804688 2.757812 13.859375 3.375 C 14.910156 3.988281 16.207031 4.101562 17.75 3.71875 C 19.300781 3.332031 21.320312 2.164062 23.8125 0.21875 L 60.390625 -28.75 C 64.671875 -32.101562 67.644531 -34.226562 69.3125 -35.125 L 63.3125 -42.171875 L 70.6875 -47.953125 L 82.46875 -32.90625 L 68.46875 25.40625 C 67.050781 30.84375 65.765625 35.457031 64.609375 39.25 L 64.6875 39.34375 L 95.078125 15.53125 C 99.222656 12.28125 102.171875 10.125 103.921875 9.0625 L 98 2.109375 L 105.375 -3.671875 L 122.5 18.1875 L 116.1875 23.140625 C 114.75 21.460938 113.507812 20.3125 112.46875 19.6875 C 111.425781 19.0625 110.125 18.941406 108.5625 19.328125 C 107.007812 19.722656 104.988281 20.898438 102.5 22.859375 L 49.125 64.671875 L 42.75 56.53125 Z M 57.90625 -4.84375 "/></g></g></g></g></g><g transform="matrix(1, 0, 0, 1, 345, 1223)"><g clip-path="url(#a6bb725e6a)"><g fill="#385b4f" fill-opacity="1"><g transform="translate(17.851807, 105.46278)"><g><path d="M 14.0625 10.640625 C 9.882812 8.148438 6.976562 4.976562 5.34375 1.125 C 3.71875 -2.726562 3.859375 -6.253906 5.765625 -9.453125 C 7.222656 -11.898438 9.144531 -13.546875 11.53125 -14.390625 C 13.914062 -15.234375 16.332031 -14.925781 18.78125 -13.46875 C 21.019531 -12.144531 22.320312 -10.476562 22.6875 -8.46875 C 23.050781 -6.457031 22.703125 -4.492188 21.640625 -2.578125 C 21.046875 -1.421875 19.960938 -0.308594 18.390625 0.75 C 18.304688 1.539062 18.519531 2.253906 19.03125 2.890625 C 19.550781 3.535156 20.085938 4.019531 20.640625 4.34375 C 23.710938 6.175781 26.890625 4.335938 30.171875 -1.171875 L 55.125 -43.140625 C 57.90625 -47.804688 59.914062 -50.859375 61.15625 -52.296875 L 53.109375 -56.65625 L 57.90625 -64.703125 L 87.9375 -46.84375 L 83.828125 -39.953125 C 81.890625 -41.003906 80.320312 -41.628906 79.125 -41.828125 C 77.925781 -42.023438 76.671875 -41.660156 75.359375 -40.734375 C 74.054688 -39.804688 72.597656 -37.984375 70.984375 -35.265625 L 52.75 -4.609375 C 46.894531 5.230469 40.796875 11.3125 34.453125 13.625 C 28.109375 15.945312 21.3125 14.953125 14.0625 10.640625 Z M 14.0625 10.640625 "/></g></g></g><g fill="#385b4f" fill-opacity="1"><g transform="translate(100.508226, 152.671573)"><g><path d="M 42.65625 18.9375 C 33.59375 15.351562 26.90625 10.398438 22.59375 4.078125 C 18.289062 -2.242188 16.015625 -9.078125 15.765625 -16.421875 C 15.523438 -23.765625 16.804688 -30.984375 19.609375 -38.078125 C 22.265625 -44.796875 26.351562 -50.726562 31.875 -55.875 C 37.394531 -61.03125 43.96875 -64.476562 51.59375 -66.21875 C 59.21875 -67.957031 67.257812 -67.160156 75.71875 -63.828125 C 84.394531 -60.398438 90.882812 -55.460938 95.1875 -49.015625 C 99.5 -42.566406 101.835938 -35.601562 102.203125 -28.125 C 102.566406 -20.644531 101.421875 -13.546875 98.765625 -6.828125 C 96.171875 -0.253906 92.101562 5.625 86.5625 10.8125 C 81.03125 16 74.441406 19.484375 66.796875 21.265625 C 59.160156 23.046875 51.113281 22.269531 42.65625 18.9375 Z M 47.046875 11.109375 C 51.960938 13.046875 56.578125 13.078125 60.890625 11.203125 C 65.210938 9.335938 68.988281 6.289062 72.21875 2.0625 C 75.457031 -2.152344 78.09375 -6.832031 80.125 -11.96875 C 84.351562 -22.6875 85.828125 -31.957031 84.546875 -39.78125 C 83.273438 -47.613281 78.9375 -52.992188 71.53125 -55.921875 C 66.550781 -57.878906 61.851562 -57.898438 57.4375 -55.984375 C 53.019531 -54.078125 49.175781 -50.972656 45.90625 -46.671875 C 42.644531 -42.367188 39.988281 -37.617188 37.9375 -32.421875 C 35.84375 -27.128906 34.507812 -21.539062 33.9375 -15.65625 C 33.363281 -9.769531 34.082031 -4.359375 36.09375 0.578125 C 38.113281 5.515625 41.765625 9.023438 47.046875 11.109375 Z M 47.046875 11.109375 "/></g></g></g><g fill="#385b4f" fill-opacity="1"><g transform="translate(227.569915, 198.555101)"><g><path d="M 45.703125 10.640625 C 33.179688 8.273438 24.9375 3.269531 20.96875 -4.375 C 17.007812 -12.03125 16.109375 -21.5625 18.265625 -32.96875 L 23.75 -61.921875 C 24.59375 -66.378906 25.429688 -69.941406 26.265625 -72.609375 L 17.21875 -73.921875 L 18.96875 -83.140625 L 53.296875 -76.640625 L 51.796875 -68.75 C 49.710938 -69.0625 48.050781 -69.109375 46.8125 -68.890625 C 45.570312 -68.671875 44.5 -67.898438 43.59375 -66.578125 C 42.6875 -65.265625 41.9375 -63.054688 41.34375 -59.953125 L 35.109375 -27.046875 C 31.910156 -10.148438 37.007812 -0.433594 50.40625 2.09375 C 56.695312 3.289062 61.988281 2.066406 66.28125 -1.578125 C 70.570312 -5.222656 73.515625 -11.273438 75.109375 -19.734375 L 81.046875 -51.078125 C 82.054688 -56.421875 82.894531 -59.976562 83.5625 -61.75 L 74.390625 -63.09375 L 76.140625 -72.3125 L 103.90625 -67.0625 L 102.40625 -59.171875 C 100.238281 -59.492188 98.550781 -59.539062 97.34375 -59.3125 C 96.144531 -59.09375 95.09375 -58.320312 94.1875 -57 C 93.28125 -55.6875 92.53125 -53.476562 91.9375 -50.375 L 86.28125 -20.46875 C 83.800781 -7.382812 78.988281 1.554688 71.84375 6.359375 C 64.695312 11.160156 55.984375 12.585938 45.703125 10.640625 Z M 45.703125 10.640625 "/></g></g></g><g fill="#385b4f" fill-opacity="1"><g transform="translate(359.56978, 219.341615)"><g><path d="M 6.140625 -8 C 8.328125 -8.0625 9.988281 -8.3125 11.125 -8.75 C 12.269531 -9.195312 13.171875 -10.144531 13.828125 -11.59375 C 14.484375 -13.050781 14.820312 -15.363281 14.84375 -18.53125 L 15.125 -65.171875 C 15.144531 -69.710938 15.328125 -73.363281 15.671875 -76.125 L 6.546875 -75.8125 L 6.59375 -85.1875 L 41.171875 -85.234375 C 52.285156 -85.242188 60.851562 -83.238281 66.875 -79.21875 C 72.90625 -75.207031 75.894531 -68.738281 75.84375 -59.8125 C 75.8125 -54.207031 73.976562 -49.25 70.34375 -44.9375 C 66.707031 -40.625 61.351562 -37.472656 54.28125 -35.484375 L 54.265625 -35.359375 C 55.722656 -34.785156 57.21875 -33.78125 58.75 -32.34375 C 60.289062 -30.914062 61.582031 -29.34375 62.625 -27.625 L 68.296875 -19.078125 C 71.023438 -14.765625 73.296875 -11.789062 75.109375 -10.15625 C 76.929688 -8.519531 79.179688 -7.648438 81.859375 -7.546875 L 81.8125 0.484375 L 61.734375 0.359375 C 60.359375 -0.617188 58.984375 -2.023438 57.609375 -3.859375 C 56.242188 -5.691406 54.675781 -8.113281 52.90625 -11.125 L 43.984375 -25.78125 C 41.972656 -29.050781 40.285156 -31.414062 38.921875 -32.875 L 32.59375 -32.921875 L 32.515625 -19.90625 C 32.484375 -15.28125 32.296875 -11.585938 31.953125 -8.828125 C 34.554688 -9.046875 38.007812 -9.144531 42.3125 -9.125 L 42.25 0.25 L 6.09375 0.03125 Z M 38.484375 -41.65625 C 45.140625 -41.613281 49.953125 -43.0625 52.921875 -46 C 55.898438 -48.945312 57.410156 -53.585938 57.453125 -59.921875 C 57.492188 -66.660156 55.796875 -71.132812 52.359375 -73.34375 C 48.921875 -75.5625 45.132812 -76.6875 41 -76.71875 C 38.15625 -76.726562 36.082031 -76.128906 34.78125 -74.921875 C 33.476562 -73.710938 32.8125 -71.117188 32.78125 -67.140625 L 32.640625 -42.1875 C 35.066406 -41.832031 37.015625 -41.65625 38.484375 -41.65625 Z M 38.484375 -41.65625 "/></g></g></g><g fill="#385b4f" fill-opacity="1"><g transform="translate(484.273702, 216.798785)"><g><path d="M 22.875 -53.4375 C 20.414062 -55.625 17.6875 -58.222656 14.6875 -61.234375 L 14.5625 -61.21875 L 21.4375 -24.109375 C 22.226562 -19.640625 22.707031 -16.015625 22.875 -13.234375 C 25.382812 -13.929688 28.359375 -14.585938 31.796875 -15.203125 L 33.4375 -5.96875 L 6.109375 -1.09375 L 4.703125 -9 C 6.847656 -9.46875 8.4375 -10.019531 9.46875 -10.65625 C 10.507812 -11.300781 11.222656 -12.394531 11.609375 -13.9375 C 11.992188 -15.488281 11.910156 -17.820312 11.359375 -20.9375 L 2.921875 -66.8125 C 1.960938 -72.164062 1.484375 -75.789062 1.484375 -77.6875 L -7.5625 -75.703125 L -9.21875 -84.921875 L 9.59375 -88.265625 L 54.53125 -48.5625 C 58.675781 -44.769531 62.148438 -41.46875 64.953125 -38.65625 L 65.0625 -38.671875 L 58.296875 -76.6875 C 57.367188 -81.875 56.847656 -85.488281 56.734375 -87.53125 L 47.8125 -85.578125 L 46.15625 -94.796875 L 73.5 -99.671875 L 74.921875 -91.765625 C 72.765625 -91.296875 71.164062 -90.742188 70.125 -90.109375 C 69.082031 -89.472656 68.367188 -88.378906 67.984375 -86.828125 C 67.597656 -85.273438 67.6875 -82.941406 68.25 -79.828125 L 80.15625 -13.0625 L 69.96875 -11.234375 Z M 22.875 -53.4375 "/></g></g></g><g fill="#385b4f" fill-opacity="1"><g transform="translate(616.529112, 188.848403)"><g><path d="M -2.484375 -8.046875 C -0.503906 -8.785156 0.929688 -9.96875 1.828125 -11.59375 C 2.734375 -13.226562 3.257812 -15.003906 3.40625 -16.921875 C 3.5625 -18.847656 3.628906 -21.582031 3.609375 -25.125 L 3.078125 -94.46875 L 11.046875 -97.453125 L 58.578125 -44.34375 C 59.742188 -43.050781 61.085938 -41.410156 62.609375 -39.421875 C 64.128906 -37.429688 65.25 -35.707031 65.96875 -34.25 C 68.394531 -35.40625 70.554688 -36.34375 72.453125 -37.0625 L 75.734375 -28.28125 L 45.0625 -16.8125 L 42.25 -24.34375 C 45.894531 -25.707031 47.148438 -27.910156 46.015625 -30.953125 C 45.453125 -32.472656 44.347656 -34.140625 42.703125 -35.953125 L 38.078125 -41.390625 L 13.5 -31.671875 L 13.6875 -25.640625 C 13.675781 -24.941406 13.671875 -23.378906 13.671875 -20.953125 C 13.679688 -18.523438 13.617188 -16.550781 13.484375 -15.03125 C 15.835938 -16.175781 18.5 -17.300781 21.46875 -18.40625 L 24.875 -9.28125 L 0.453125 -0.171875 Z M 32.234375 -48.421875 L 21.640625 -60.71875 C 17.109375 -66.125 13.722656 -70.789062 11.484375 -74.71875 L 11.359375 -74.671875 C 12.191406 -68.753906 12.664062 -63.210938 12.78125 -58.046875 L 13.171875 -41.296875 Z M 32.234375 -48.421875 "/></g></g></g><g fill="#385b4f" fill-opacity="1"><g transform="translate(729.219116, 142.870959)"><g><path d="M 1.265625 -10 C 3.117188 -11.164062 4.425781 -12.222656 5.1875 -13.171875 C 5.945312 -14.128906 6.242188 -15.398438 6.078125 -16.984375 C 5.921875 -18.578125 5.050781 -20.75 3.46875 -23.5 L -19.8125 -63.90625 C -22.082031 -67.84375 -23.765625 -71.085938 -24.859375 -73.640625 L -32.578125 -68.765625 L -37.265625 -76.890625 L -7 -94.328125 L -2.984375 -87.359375 C -4.835938 -86.203125 -6.144531 -85.144531 -6.90625 -84.1875 C -7.675781 -83.238281 -7.972656 -81.96875 -7.796875 -80.375 C -7.628906 -78.78125 -6.757812 -76.613281 -5.1875 -73.875 L 18.09375 -33.46875 C 20.28125 -29.675781 21.921875 -26.5 23.015625 -23.9375 L 37.15625 -32.09375 C 41.332031 -34.59375 43.738281 -37.96875 44.375 -42.21875 C 45.019531 -46.476562 43.722656 -51.414062 40.484375 -57.03125 L 47.546875 -61.109375 L 61.5 -35.4375 L 5.28125 -3.046875 Z M 1.265625 -10 "/></g></g></g></g></g><path fill="#385b4f" d="M 1096.394531 1018.832031 C 1068.546875 1045.453125 1039.679688 1056.589844 974.671875 1039.53125 C 958.515625 1034.765625 913.820312 1017.855469 904.851562 1010.992188 C 923.476562 1003.589844 942.75 999.546875 961.515625 1000.769531 C 973.402344 1001.546875 973.351562 983.042969 961.515625 982.273438 C 943.1875 981.074219 924.414062 984.386719 906.078125 990.761719 C 912.625 982.578125 921.308594 976.167969 929.605469 969.921875 C 966.359375 942.242188 1010.316406 928.59375 1056.625 930.167969 C 1104.394531 931.785156 1134.179688 982.707031 1096.394531 1018.832031 Z M 914.816406 712.136719 C 932.042969 677.128906 986.371094 641.359375 1010.980469 669.675781 C 1027.703125 688.925781 1011.558594 717.078125 998.339844 732.878906 C 982.191406 752.160156 945.554688 779.289062 935.582031 784.027344 C 946.21875 757.628906 960.070312 732.570312 977.394531 709.847656 C 984.605469 700.378906 968.546875 691.152344 961.417969 700.503906 C 941.605469 726.503906 926.160156 755.535156 914.800781 786.171875 C 893.183594 777.566406 907.613281 726.777344 914.816406 712.136719 Z M 910.132812 1122.726562 C 938.6875 1123.320312 969.996094 1148.324219 959.578125 1179.839844 C 947.683594 1215.8125 902.644531 1212.207031 876.03125 1198.007812 C 867.824219 1193.460938 850.160156 1187.210938 841.519531 1178.132812 C 853.9375 1173.289062 866.894531 1171.839844 880.644531 1176.464844 C 891.953125 1180.265625 896.804688 1162.40625 885.558594 1158.625 C 869.785156 1153.320312 854.132812 1154.265625 839.113281 1159.289062 C 850.765625 1137.707031 887.882812 1122.273438 910.132812 1122.726562 Z M 552.566406 1148.839844 C 513.167969 1111.171875 598.632812 1007.257812 672.988281 1049.363281 C 680.683594 1053.722656 688.421875 1058.617188 693.539062 1065.347656 C 677.875 1062.554688 662.25 1062.933594 648.011719 1067.335938 C 636.671875 1070.839844 641.507812 1088.703125 652.929688 1085.175781 C 666.222656 1081.070312 681.242188 1081.292969 696.21875 1084.839844 C 679.621094 1111.128906 591.441406 1185.996094 552.566406 1148.839844 Z M 479.0625 858.566406 C 439.40625 891.152344 398.75 912.21875 346.191406 910.5625 C 318.945312 909.703125 305.804688 889.398438 307.148438 862.859375 C 309.964844 807.230469 437.003906 797.804688 488.488281 827.039062 C 468.460938 825.433594 448.304688 825.820312 428.394531 828.371094 C 416.75 829.863281 416.601562 848.382812 428.394531 846.871094 C 450.453125 844.046875 472.890625 843.945312 495.101562 846.382812 C 490.566406 850.960938 483.328125 855.0625 479.0625 858.566406 Z M 538.835938 986.59375 C 526.804688 1011.957031 502.347656 1044.425781 470.832031 1044.011719 C 427.589844 1043.441406 456.46875 973.957031 469.203125 957.058594 C 486.464844 934.148438 514.722656 918.507812 543.582031 916.324219 C 520.640625 937.007812 502.066406 963.429688 490.972656 987.203125 C 485.964844 997.921875 501.90625 1007.328125 506.945312 996.539062 C 518.9375 970.855469 534.359375 950.355469 553.324219 933.449219 C 549.644531 945.859375 547.148438 965.9375 538.835938 986.59375 Z M 524.132812 752.175781 C 460.566406 659.058594 542.515625 600.730469 564.011719 656.367188 C 574.667969 683.933594 577.082031 713.4375 571.480469 742.578125 C 569.785156 751.375 566.171875 773.21875 558.578125 780.175781 C 555.976562 761.515625 556.503906 742.535156 560.441406 725.035156 C 563.046875 713.441406 545.214844 708.488281 542.601562 720.121094 C 538.828125 736.894531 537.792969 754.496094 539.230469 771.980469 C 532.652344 764.730469 526.554688 755.726562 524.132812 752.175781 Z M 570.871094 494.042969 C 581.039062 492.269531 589.964844 493.242188 600.109375 496.578125 C 593.589844 531.078125 593.828125 571.863281 614.417969 599.949219 C 570.535156 579.980469 568.582031 541.371094 570.871094 494.042969 Z M 621.179688 486.917969 C 635.625 430.851562 666.695312 403.359375 679.871094 387.40625 C 682.890625 414.375 691.996094 441.152344 700.613281 466.414062 C 677.019531 492.996094 659.261719 526.566406 653.285156 559.574219 C 653.105469 538.378906 656.4375 517.355469 663.175781 496.550781 C 666.851562 485.195312 648.996094 480.328125 645.335938 491.628906 C 633.976562 526.695312 631.945312 562.863281 638.8125 598.882812 C 607.804688 573.261719 611.894531 522.941406 621.179688 486.917969 Z M 859.554688 380.488281 C 877.960938 476.183594 828.222656 566.847656 749.804688 620.816406 C 741.988281 626.195312 724.605469 637.429688 715.277344 639.097656 C 709.578125 635.265625 703.0625 632.203125 698.183594 629.296875 C 730.5625 605.992188 764.660156 539.285156 778.8125 498.105469 C 782.691406 486.828125 764.828125 481.976562 760.976562 493.191406 C 753.03125 516.308594 742.945312 538.453125 730.355469 559.421875 C 695.0625 618.195312 686.402344 612.339844 681.457031 618.90625 C 679.585938 617.832031 677.679688 616.804688 675.746094 615.847656 C 656.660156 566.160156 685.882812 505.992188 723.867188 468.734375 C 762.726562 430.617188 812.894531 407.554688 859.554688 380.488281 Z M 837.367188 559.042969 C 852.511719 539.207031 885.539062 544.761719 930.480469 528.070312 C 924.199219 622.464844 855.066406 684.589844 767.441406 651.875 C 799.972656 644.578125 829.527344 629.816406 855.695312 608.550781 C 864.933594 601.039062 851.777344 588.023438 842.613281 595.46875 C 819.226562 614.472656 792.480469 627.101562 763.515625 633.753906 C 800.613281 607.363281 819.570312 582.339844 837.367188 559.042969 Z M 810.535156 724.347656 C 758.730469 728.769531 745.558594 703.398438 727.867188 654.96875 C 731.851562 653.453125 773.875 684.046875 826.445312 678.859375 C 850.984375 731.335938 837.09375 722.078125 810.535156 724.347656 Z M 700.945312 673.519531 C 696.058594 680.988281 690.722656 690.886719 682.566406 694.910156 C 659.859375 706.121094 647.808594 678.0625 647.96875 660.238281 C 648.027344 653.601562 646.226562 633.082031 653.222656 629.105469 C 663.128906 623.457031 691.625 647.171875 699.878906 652.253906 C 701.722656 653.382812 703.183594 654.054688 704.3125 654.820312 C 704.726562 655.324219 705.21875 655.777344 705.796875 656.167969 C 710.167969 662.03125 702.703125 670.832031 700.945312 673.519531 Z M 772.996094 908.390625 C 754.03125 903.570312 737.5625 894.898438 726.179688 878.582031 C 699.101562 839.773438 696.851562 782.046875 726.636719 772.710938 C 759.558594 762.386719 800.847656 785.90625 821.1875 810.007812 C 837.359375 832.507812 850.3125 869.515625 834.492188 894.859375 C 827.566406 879.003906 817.835938 864.46875 804.96875 852.300781 C 796.320312 844.128906 783.210938 857.1875 791.890625 865.386719 C 804.820312 877.613281 814.082031 892.613281 820.203125 908.957031 C 806.226562 916.683594 787.796875 912.152344 772.996094 908.390625 Z M 1013.046875 792.074219 C 1026.113281 792.96875 1028.996094 817.15625 1032.46875 826.820312 C 1033.097656 828.566406 1034.578125 830.925781 1034.773438 832.746094 C 1035.332031 838.101562 1037.25 833.15625 1033.578125 838.121094 C 1029.503906 843.636719 1016.152344 849.375 1010.414062 851.125 C 986 858.554688 965.683594 843.46875 981.191406 818.375 C 987.25 809.726562 1000.789062 791.230469 1013.046875 792.074219 Z M 1208.5625 731.695312 C 1205.371094 743.601562 1199.445312 754.808594 1192 765.21875 C 1178.949219 767.957031 1165.164062 769.695312 1151.875 768.8125 C 1133.398438 767.578125 1089.46875 752.402344 1039.085938 791.113281 C 1037.753906 788.574219 1036.246094 786.15625 1034.480469 783.960938 C 1081.019531 697.949219 1119.59375 746.875 1208.5625 731.695312 Z M 1055.132812 839.0625 C 1056.375 830.765625 1049.792969 816.738281 1046.484375 808.867188 C 1070.738281 788.34375 1102.445312 779.144531 1133.980469 784.566406 C 1147.554688 786.90625 1160.792969 787.433594 1174.105469 786.378906 C 1141.503906 819.863281 1101.070312 847.84375 1055.132812 839.0625 Z M 1121.828125 945.566406 C 1094.84375 904.660156 1043.59375 909.550781 1001.222656 917.082031 C 977.386719 921.320312 954.539062 930.222656 934.394531 943.722656 C 915.25 956.558594 882.789062 978.285156 880.671875 1001.628906 C 862.109375 1011.027344 844.511719 1023.074219 828.933594 1036.183594 C 858.941406 966.773438 907.949219 906.078125 971.226562 862.804688 C 992.785156 879.40625 1020.445312 870.539062 1042.605469 855.121094 C 1084.445312 866.996094 1125.882812 851.566406 1158.789062 825.113281 C 1191.398438 798.90625 1224.761719 763.308594 1229.277344 720.050781 C 1229.941406 713.75 1222.867188 709.9375 1217.570312 711.132812 C 1125.785156 731.855469 1073.335938 673.847656 1018.804688 774.089844 C 996.957031 769.277344 976.277344 793.242188 965.214844 809.039062 C 958.460938 818.667969 954.929688 835.066406 960.070312 848.101562 C 942.59375 860.1875 926.109375 873.523438 910.753906 887.984375 C 913.34375 859.984375 918.925781 832.164062 927.707031 805.4375 C 956.964844 800.566406 1046.664062 735.472656 1035.375 679.160156 C 1031.582031 660.238281 1016.417969 645.679688 997.578125 641.925781 C 960.566406 634.539062 920.21875 666.617188 902.296875 696.414062 C 881.742188 730.582031 872.792969 788.640625 908.878906 803.601562 C 898.226562 837.425781 892.335938 872.816406 890.914062 908 C 824.449219 979.472656 859.308594 979.621094 841.714844 915.480469 C 872.03125 884.683594 859.777344 831.113281 836.257812 799.402344 C 799.042969 749.320312 687.121094 716.226562 686.761719 816.007812 C 686.660156 843.496094 697.246094 871.050781 713.738281 892.828125 C 728.324219 912.082031 750.089844 922.410156 773.316406 927.445312 C 790.617188 931.191406 809.367188 934.5 825.625 927.121094 C 831.105469 951.402344 830.519531 977.398438 825.019531 1001.195312 C 809.953125 1030.070312 797.96875 1061.304688 789.945312 1093.277344 C 759.316406 1002.679688 695.472656 948.246094 668.332031 868.296875 C 651.394531 818.402344 649.863281 765.136719 662.609375 714.164062 C 688.835938 722.066406 702.144531 704.84375 717.996094 682.175781 C 734.859375 726.082031 765.164062 744.164062 800.984375 743.449219 C 857.410156 742.320312 873.574219 736.324219 845.128906 675.46875 C 901.84375 660.246094 949.539062 601.867188 949.496094 513.808594 C 949.496094 506.496094 941.730469 502.683594 935.582031 505.816406 C 908.714844 519.523438 874.328125 523.050781 855.617188 528.003906 C 881.058594 477.691406 889.160156 420.933594 874.75 363.570312 C 873.3125 357.828125 866.199219 355 861.167969 358.042969 C 812.050781 387.738281 757.167969 411.792969 715.046875 451.488281 C 704.355469 419.929688 694.175781 386.433594 698.277344 353.308594 C 699.574219 342.847656 682.640625 340.941406 680.109375 350.847656 C 675.957031 367.074219 659.859375 379.078125 649.863281 391.96875 C 628.121094 420.011719 613.398438 445.0625 604.261719 478.507812 C 588.980469 473.609375 575.328125 473.34375 559.523438 477.601562 C 555.449219 478.703125 552.917969 482.453125 552.730469 486.527344 C 551.128906 521.101562 549.230469 562.046875 572.398438 590.457031 C 587.988281 609.574219 610.390625 620.929688 634.230469 625.132812 C 629.816406 635.84375 629.554688 650.132812 629.46875 660.238281 C 629.320312 676.554688 635.324219 693.667969 646.496094 704.558594 C 642.230469 711.070312 627.660156 774.808594 641.84375 841.742188 C 645.847656 860.644531 652.035156 878.671875 659.667969 896.070312 C 638.054688 878.253906 613.875 863.5 588.128906 852.222656 C 576.488281 837.597656 568.011719 819.902344 562.855469 801.128906 C 582.457031 792.980469 610.035156 724.378906 581.851562 651.445312 C 575.421875 634.796875 565.765625 620.316406 547.183594 616.472656 C 530.914062 613.113281 513.171875 619.332031 501.398438 630.792969 C 455.53125 675.433594 500.601562 775.398438 543.4375 798.78125 C 546.914062 813.59375 552.207031 827.957031 559.289062 841.242188 C 545.570312 836.777344 531.539062 833.292969 517.347656 830.773438 C 515.699219 826.03125 511.972656 821.1875 505.417969 816.285156 C 440.535156 767.765625 246.902344 789.464844 295.222656 898.324219 C 304.921875 920.171875 323.421875 928.347656 346.191406 929.0625 C 399.464844 930.742188 444.59375 910.84375 485.234375 877.367188 C 495.183594 869.171875 508.03125 859.589844 514.421875 849.160156 C 545.613281 854.699219 577.449219 865.683594 606.492188 881.859375 C 591.539062 884.9375 577.128906 891.578125 563.714844 900.546875 C 539.515625 888.5 477.070312 906.878906 447.347656 956.269531 C 430.65625 984.015625 413.945312 1047.515625 457.714844 1060.695312 C 498.9375 1073.105469 540.945312 1029.445312 556.09375 993.007812 C 565.28125 970.914062 575.625 930.46875 574.425781 916.851562 C 600.539062 899.101562 615.546875 897.789062 633.167969 898.746094 C 658.558594 916.886719 681.550781 939.90625 698.449219 965.996094 C 726.855469 1009.855469 763.867188 1061.820312 778.210938 1115.699219 C 763.21875 1097.152344 742.332031 1082.082031 719.832031 1073.003906 C 716.632812 1049.007812 661.257812 1013.164062 624.347656 1021.75 C 588.367188 1023.582031 536.835938 1060.054688 526.273438 1109.058594 C 516.417969 1154.757812 554.878906 1184.816406 598.1875 1175.382812 C 623.921875 1169.777344 647.75 1153.96875 668.207031 1138.0625 C 683.140625 1126.457031 705.5625 1109.808594 715.484375 1091.242188 C 752.1875 1106.921875 783.875 1140.914062 782.679688 1177.742188 C 782.371094 1187.257812 776.875 1207.671875 766.453125 1225.875 C 760.53125 1236.222656 776.507812 1245.554688 782.425781 1235.210938 C 799.050781 1206.171875 786.578125 1208.535156 824.84375 1186.554688 C 835.25 1198.546875 854.046875 1206.976562 866.695312 1213.984375 C 902.566406 1233.128906 954.328125 1233.765625 974.609375 1191.804688 C 991.613281 1156.609375 965.304688 1115.882812 929.863281 1106.761719 C 877.53125 1093.289062 815.777344 1138.195312 817.246094 1169.328125 C 798.664062 1179.332031 801.109375 1179.910156 801.179688 1177.742188 C 801.375 1171.828125 803.34375 1158.023438 800.222656 1135.679688 C 803.347656 1115.433594 807.996094 1095.535156 814.078125 1076.144531 C 832.84375 1055.394531 858.289062 1034.238281 886.214844 1019.597656 C 899.140625 1035.535156 950.125 1051.582031 969.753906 1057.367188 C 1014.734375 1069.175781 1058.488281 1071.515625 1096.992188 1042.277344 C 1128.046875 1018.691406 1145.3125 981.171875 1121.828125 945.566406 " fill-opacity="1" fill-rule="nonzero"/><path fill="#385b4f" d="M 1190.269531 529.820312 C 1213.554688 544.308594 1207.980469 597.824219 1154.597656 626.21875 C 1140.578125 633.671875 1102.179688 651.253906 1086.113281 641.28125 C 1107.5625 621.1875 1133.320312 606.253906 1161.855469 597.402344 C 1173.195312 593.882812 1168.355469 576.015625 1156.9375 579.554688 C 1079.855469 603.484375 1073.078125 645.722656 1085.929688 603.414062 C 1090.664062 587.8125 1098.144531 573.464844 1108.988281 561.195312 C 1125.253906 542.804688 1164.398438 513.71875 1190.269531 529.820312 Z M 1062.476562 639.175781 C 1056.945312 645.179688 1051.6875 651.507812 1046.757812 658.183594 C 1039.675781 667.773438 1055.730469 677.011719 1062.730469 667.527344 C 1065.851562 663.292969 1069.136719 659.210938 1072.558594 655.28125 C 1095.582031 673.078125 1143.535156 653.042969 1163.933594 642.191406 C 1200.5 622.742188 1243.839844 566.257812 1211.582031 524.761719 C 1183.628906 488.789062 1130.359375 515.292969 1104.207031 539.609375 C 1071.050781 570.433594 1058.574219 620.726562 1062.476562 639.175781 " fill-opacity="1" fill-rule="nonzero"/><path fill="#385b4f" d="M 937.746094 348.46875 C 941.453125 335.6875 951.710938 322.886719 965.386719 320.378906 C 982.898438 317.179688 998.074219 332.613281 1008.339844 344.644531 C 1031.632812 371.929688 1026.960938 423.214844 1016.578125 451.210938 C 1012.816406 437.234375 1007.007812 423.617188 999.710938 410.300781 C 994 399.859375 978.011719 409.179688 983.742188 419.636719 C 991.96875 434.667969 997.929688 449.738281 1000.792969 465.289062 C 975.363281 463.582031 924.289062 394.945312 937.746094 348.46875 Z M 1002.664062 484.632812 C 1003.078125 522.617188 981.679688 567.617188 957.878906 598.332031 C 950.679688 607.632812 963.679688 620.816406 970.964844 611.410156 C 999.179688 575 1024.058594 523.582031 1021.078125 477.839844 C 1043.136719 458.675781 1046.652344 395.707031 1040.335938 366.683594 C 1035.832031 345.972656 1021.035156 328.378906 1004.828125 315.355469 C 973.230469 289.984375 930.953125 304.425781 919.90625 343.554688 C 902.726562 404.441406 965.890625 484.1875 1002.664062 484.632812 " fill-opacity="1" fill-rule="nonzero"/><path fill="#385b4f" d="M 393.175781 488.636719 C 457.402344 458.226562 484.058594 566.183594 420.214844 654.21875 C 414.496094 661.242188 408.152344 667.460938 399.539062 666.382812 C 399.785156 643.25 404.515625 619.578125 409.121094 601.007812 C 411.984375 589.453125 394.148438 584.519531 391.28125 596.089844 C 387.140625 612.785156 383.460938 631.648438 382.023438 650.730469 C 371.421875 629.953125 363.359375 611.25 357.628906 586.699219 C 349.261719 550.847656 356.519531 505.984375 393.175781 488.636719 Z M 381.8125 679.644531 C 383.898438 709.527344 393.980469 737.453125 419.375 755.578125 C 429.085938 762.5 438.335938 746.460938 428.714844 739.597656 C 411.421875 727.261719 403.410156 708.105469 400.675781 686.953125 C 413.992188 686.929688 428.71875 674.800781 434.871094 665.175781 C 435.15625 664.871094 435.453125 664.589844 435.714844 664.230469 C 465.710938 623.210938 484.78125 565.242188 471.875 514.476562 C 448.308594 421.75 293.234375 465.347656 348.214844 619.304688 C 355.304688 639.152344 364.386719 665.832031 381.8125 679.644531 " fill-opacity="1" fill-rule="nonzero"/><path fill="#385b4f" d="M 517.832031 343.171875 C 531.160156 331.214844 563.246094 315.960938 569.617188 343.578125 C 578.59375 382.457031 526.773438 426.199219 499.230469 423.746094 C 504.644531 412.113281 512.761719 401.675781 523.382812 393.492188 C 532.683594 386.328125 523.480469 370.246094 514.046875 377.515625 C 490.820312 395.414062 487.816406 410.910156 489.921875 401.246094 C 494.222656 381.507812 502.363281 357.050781 517.832031 343.171875 Z M 476.320312 433.839844 C 472.304688 449.3125 471.886719 465.863281 475.636719 482.539062 C 478.246094 494.152344 496.085938 489.238281 493.476562 477.625 C 490.867188 466.007812 490.773438 454.1875 492.96875 442.910156 C 513.613281 445.445312 541.667969 428.511719 554.796875 418.242188 C 578.621094 397.402344 601.648438 357.628906 582.558594 326.261719 C 565.121094 297.601562 526.664062 311.046875 506.472656 328.621094 C 486.523438 345.996094 457.128906 409.414062 476.320312 433.839844 " fill-opacity="1" fill-rule="nonzero"/><path fill="#385b4f" d="M 890.476562 477.578125 C 883.878906 487.535156 899.898438 496.8125 906.449219 486.914062 C 915.4375 473.332031 919.957031 457.683594 919.855469 441.410156 C 919.777344 429.511719 901.273438 429.488281 901.351562 441.410156 C 901.4375 454.660156 897.777344 466.535156 890.476562 477.578125 " fill-opacity="1" fill-rule="nonzero"/><path fill="#385b4f" d="M 588.375 443.859375 C 589.007812 455.699219 607.515625 455.777344 606.878906 443.859375 C 606.105469 429.5 608.484375 415.691406 614.667969 402.660156 C 619.75 391.960938 603.804688 382.5625 598.691406 393.320312 C 591.121094 409.28125 587.429688 426.175781 588.375 443.859375 " fill-opacity="1" fill-rule="nonzero"/><path fill="#385b4f" d="M 618.292969 372.957031 C 630.199219 372.957031 630.21875 354.457031 618.292969 354.457031 C 606.390625 354.457031 606.371094 372.957031 618.292969 372.957031 " fill-opacity="1" fill-rule="nonzero"/><path fill="#385b4f" d="M 782.171875 967.53125 C 793.90625 965.785156 788.917969 947.957031 777.25 949.691406 C 759.515625 952.324219 742.921875 941.851562 735.417969 926.132812 C 730.289062 915.394531 714.332031 924.769531 719.441406 935.46875 C 730.832031 959.316406 756.53125 971.34375 782.171875 967.53125 " fill-opacity="1" fill-rule="nonzero"/><path fill="#385b4f" d="M 850.226562 786.710938 C 860.152344 797.320312 865.792969 810.464844 866.503906 825 C 867.082031 836.851562 885.585938 836.917969 885.003906 825 C 884.054688 805.503906 876.65625 787.882812 863.308594 773.628906 C 855.144531 764.917969 842.085938 778.023438 850.226562 786.710938 " fill-opacity="1" fill-rule="nonzero"/><path fill="#385b4f" d="M 1068.683594 1077.886719 C 1051.726562 1094.214844 1017.515625 1087.222656 997.972656 1080.523438 C 986.6875 1076.65625 981.835938 1094.519531 993.054688 1098.367188 C 1019.695312 1107.492188 1059.496094 1112.402344 1081.769531 1090.96875 C 1090.359375 1082.695312 1077.265625 1069.621094 1068.683594 1077.886719 " fill-opacity="1" fill-rule="nonzero"/><path fill="#385b4f" d="M 1029.398438 1132.503906 C 1019.632812 1133.210938 1012.589844 1125.097656 1006.492188 1118.503906 C 998.390625 1109.738281 985.332031 1122.847656 993.410156 1131.582031 C 1002.847656 1141.796875 1014.523438 1152.082031 1029.398438 1151.007812 C 1041.207031 1150.148438 1041.296875 1131.644531 1029.398438 1132.503906 " fill-opacity="1" fill-rule="nonzero"/><path fill="#385b4f" d="M 848.699219 1081.78125 C 839.300781 1089.054688 852.476562 1102.0625 861.78125 1094.859375 C 880.699219 1080.21875 905.027344 1070.476562 927.03125 1084.535156 C 937.09375 1090.960938 946.386719 1074.957031 936.371094 1068.558594 C 906.839844 1049.699219 874.097656 1062.128906 848.699219 1081.78125 " fill-opacity="1" fill-rule="nonzero"/><path fill="#385b4f" d="M 1144.019531 916.492188 C 1162.738281 941.011719 1165.042969 972.40625 1148.972656 998.953125 C 1142.792969 1009.167969 1158.78125 1018.472656 1164.949219 1008.292969 C 1184.058594 976.714844 1182.492188 936.625 1159.992188 907.15625 C 1152.859375 897.820312 1136.789062 907.027344 1144.019531 916.492188 " fill-opacity="1" fill-rule="nonzero"/><path fill="#385b4f" d="M 1170.746094 849.972656 C 1160.261719 844.328125 1150.910156 860.296875 1161.414062 865.949219 C 1182.929688 877.535156 1195.511719 899.230469 1194.828125 923.660156 C 1194.492188 935.566406 1212.992188 935.554688 1213.324219 923.660156 C 1214.191406 892.980469 1197.773438 864.523438 1170.746094 849.972656 " fill-opacity="1" fill-rule="nonzero"/><path fill="#385b4f" d="M 1198.59375 822.390625 C 1188.429688 816.136719 1179.117188 832.132812 1189.253906 838.367188 C 1201.277344 845.765625 1216.082031 854.644531 1215.339844 870.6875 C 1214.800781 882.589844 1233.296875 882.566406 1233.839844 870.6875 C 1234.90625 847.578125 1216.34375 833.3125 1198.59375 822.390625 " fill-opacity="1" fill-rule="nonzero"/><path fill="#385b4f" d="M 1121.503906 900.84375 C 1133.410156 900.84375 1133.429688 882.34375 1121.503906 882.34375 C 1109.605469 882.34375 1109.582031 900.84375 1121.503906 900.84375 " fill-opacity="1" fill-rule="nonzero"/><path fill="#385b4f" d="M 1230.046875 791.074219 C 1218.148438 791.074219 1218.125 809.574219 1230.046875 809.574219 C 1241.953125 809.574219 1241.972656 791.074219 1230.046875 791.074219 " fill-opacity="1" fill-rule="nonzero"/><path fill="#385b4f" d="M 1241.152344 751.605469 C 1229.246094 751.605469 1229.222656 770.105469 1241.152344 770.105469 C 1253.050781 770.105469 1253.074219 751.605469 1241.152344 751.605469 " fill-opacity="1" fill-rule="nonzero"/><path fill="#385b4f" d="M 1098.082031 673.070312 C 1086.207031 673.402344 1086.15625 691.902344 1098.082031 691.570312 C 1160.738281 689.804688 1189.414062 685.429688 1238.957031 643.949219 C 1248.097656 636.296875 1234.949219 623.273438 1225.875 630.867188 C 1181.414062 668.09375 1155.371094 671.453125 1098.082031 673.070312 " fill-opacity="1" fill-rule="nonzero"/><path fill="#385b4f" d="M 1227.582031 676.371094 C 1222.746094 676.371094 1218.105469 680.621094 1218.332031 685.621094 C 1218.558594 690.636719 1222.394531 694.867188 1227.582031 694.867188 C 1241.679688 694.867188 1241.4375 676.371094 1227.582031 676.371094 " fill-opacity="1" fill-rule="nonzero"/><path fill="#385b4f" d="M 1123.976562 1040.21875 C 1112.070312 1040.21875 1112.050781 1058.714844 1123.976562 1058.714844 C 1135.878906 1058.714844 1135.902344 1040.21875 1123.976562 1040.21875 " fill-opacity="1" fill-rule="nonzero"/><path fill="#385b4f" d="M 707.878906 1139.613281 C 697.480469 1133.78125 688.144531 1149.753906 698.535156 1155.585938 C 724.882812 1170.363281 723.367188 1201.90625 717.222656 1227.53125 C 714.445312 1239.101562 732.285156 1244.042969 735.066406 1232.449219 C 743.199219 1198.527344 741.820312 1158.660156 707.878906 1139.613281 " fill-opacity="1" fill-rule="nonzero"/><path fill="#385b4f" d="M 662.605469 1181.507812 C 667.863281 1186.808594 669.054688 1194.628906 665.402344 1201.183594 C 659.597656 1211.59375 675.566406 1220.933594 681.375 1210.523438 C 689.046875 1196.753906 686.8125 1179.640625 675.683594 1168.425781 C 667.285156 1159.964844 654.207031 1173.042969 662.605469 1181.507812 " fill-opacity="1" fill-rule="nonzero"/><path fill="#385b4f" d="M 624.457031 1180.820312 C 612.554688 1180.820312 612.539062 1199.320312 624.457031 1199.320312 C 636.367188 1199.320312 636.386719 1180.820312 624.457031 1180.820312 " fill-opacity="1" fill-rule="nonzero"/><path fill="#385b4f" d="M 516.523438 1068.921875 C 497.527344 1079.074219 475.210938 1091.050781 453.59375 1081.183594 C 442.839844 1076.277344 433.425781 1092.214844 444.257812 1097.160156 C 472.859375 1110.210938 499.960938 1098.742188 525.859375 1084.894531 C 536.363281 1079.277344 527.03125 1063.300781 516.523438 1068.921875 " fill-opacity="1" fill-rule="nonzero"/><path fill="#385b4f" d="M 496.191406 1114.214844 C 482.085938 1114.214844 482.335938 1132.71875 496.191406 1132.71875 C 501.027344 1132.71875 505.660156 1128.464844 505.441406 1123.464844 C 505.21875 1118.457031 501.375 1114.214844 496.191406 1114.214844 " fill-opacity="1" fill-rule="nonzero"/><path fill="#385b4f" d="M 590.15625 1016.492188 C 605.753906 991.433594 618.347656 957.683594 603.484375 929.648438 C 597.902344 919.125 581.925781 928.460938 587.507812 938.984375 C 598.886719 960.449219 585.78125 988.523438 574.179688 1007.15625 C 567.871094 1017.289062 583.867188 1026.589844 590.15625 1016.492188 " fill-opacity="1" fill-rule="nonzero"/><path fill="#385b4f" d="M 639.902344 993.738281 C 651.65625 975.761719 654.90625 954.257812 649.449219 933.523438 C 646.421875 922.023438 628.566406 926.902344 631.609375 938.449219 C 635.875 954.640625 633.070312 970.417969 623.925781 984.402344 C 617.390625 994.394531 633.40625 1003.675781 639.902344 993.738281 " fill-opacity="1" fill-rule="nonzero"/><path fill="#385b4f" d="M 679.960938 971.148438 C 668.058594 971.148438 668.039062 989.644531 679.960938 989.644531 C 691.871094 989.644531 691.886719 971.148438 679.960938 971.148438 " fill-opacity="1" fill-rule="nonzero"/><path fill="#385b4f" d="M 423.035156 949.167969 C 431.242188 940.542969 418.179688 927.4375 409.953125 936.085938 C 385.496094 961.785156 376.035156 996.339844 383.730469 1030.941406 C 386.3125 1042.558594 404.152344 1037.644531 401.570312 1026.023438 C 395.332031 997.96875 403.234375 969.972656 423.035156 949.167969 " fill-opacity="1" fill-rule="nonzero"/><path fill="#385b4f" d="M 417.253906 1053.78125 C 405.351562 1053.78125 405.332031 1072.28125 417.253906 1072.28125 C 429.160156 1072.28125 429.179688 1053.78125 417.253906 1053.78125 " fill-opacity="1" fill-rule="nonzero"/><path fill="#385b4f" d="M 355.355469 945.613281 C 347.035156 955.558594 342.414062 967.351562 342.527344 980.398438 C 342.628906 992.300781 361.132812 992.328125 361.027344 980.398438 C 360.957031 972.457031 363.28125 964.855469 368.4375 958.691406 C 376.027344 949.621094 363.003906 936.46875 355.355469 945.613281 " fill-opacity="1" fill-rule="nonzero"/><path fill="#385b4f" d="M 527.027344 871.242188 C 515.121094 871.242188 515.101562 889.738281 527.027344 889.738281 C 538.929688 889.738281 538.949219 871.242188 527.027344 871.242188 " fill-opacity="1" fill-rule="nonzero"/><path fill="#385b4f" d="M 390.121094 836.707031 C 378.21875 836.707031 378.195312 855.207031 390.121094 855.207031 C 402.027344 855.207031 402.046875 836.707031 390.121094 836.707031 " fill-opacity="1" fill-rule="nonzero"/><path fill="#385b4f" d="M 597.183594 783.089844 C 593.792969 800.210938 594.664062 817.214844 600.519531 833.699219 C 604.480469 844.835938 622.367188 840.039062 618.359375 828.78125 C 613.625 815.453125 612.261719 801.941406 615.027344 788.011719 C 617.332031 776.382812 599.503906 771.40625 597.183594 783.089844 " fill-opacity="1" fill-rule="nonzero"/><path fill="#385b4f" d="M 614.589844 735.574219 C 602.6875 735.574219 602.667969 754.078125 614.589844 754.078125 C 626.496094 754.078125 626.515625 735.574219 614.589844 735.574219 " fill-opacity="1" fill-rule="nonzero"/><path fill="#385b4f" d="M 442.773438 702.972656 C 445.257812 726.902344 454.082031 748.050781 469.382812 766.617188 C 476.960938 775.816406 489.984375 762.664062 482.46875 753.539062 C 470.550781 739.082031 463.210938 721.613281 461.273438 702.972656 C 460.054688 691.25 441.542969 691.125 442.773438 702.972656 " fill-opacity="1" fill-rule="nonzero"/><path fill="#385b4f" d="M 377.886719 775.457031 C 389.535156 777.320312 394.546875 759.5 382.804688 757.617188 C 344.347656 751.464844 306.636719 763.820312 280.328125 792.851562 C 272.351562 801.660156 285.398438 814.78125 293.414062 805.933594 C 315.03125 782.074219 345.855469 770.332031 377.886719 775.457031 " fill-opacity="1" fill-rule="nonzero"/><path fill="#385b4f" d="M 286.222656 720.039062 C 308.09375 712.03125 338.433594 724.222656 357.328125 735.089844 C 367.667969 741.035156 376.996094 725.054688 366.664062 719.113281 C 343.621094 705.859375 307.878906 692.46875 281.304688 702.195312 C 270.214844 706.257812 275.007812 724.144531 286.222656 720.039062 " fill-opacity="1" fill-rule="nonzero"/><path fill="#385b4f" d="M 342 676.5625 C 353.878906 677.421875 353.824219 658.921875 342 658.0625 C 322.425781 656.640625 313.277344 622.367188 314.339844 606.683594 C 315.144531 594.800781 296.640625 594.851562 295.839844 606.683594 C 293.96875 634.257812 311.007812 674.3125 342 676.5625 " fill-opacity="1" fill-rule="nonzero"/><path fill="#385b4f" d="M 298.851562 685.003906 C 310.753906 685.003906 310.773438 666.503906 298.851562 666.503906 C 286.945312 666.503906 286.925781 685.003906 298.851562 685.003906 " fill-opacity="1" fill-rule="nonzero"/><path fill="#385b4f" d="M 464.039062 447.632812 C 452.84375 434.855469 449.558594 418.050781 454.261719 401.851562 C 457.59375 390.394531 439.746094 385.503906 436.425781 396.929688 C 429.820312 419.652344 435.449219 443.007812 450.957031 460.714844 C 458.816406 469.691406 471.855469 456.558594 464.039062 447.632812 " fill-opacity="1" fill-rule="nonzero"/><path fill="#385b4f" d="M 409.855469 449.429688 C 421.757812 449.429688 421.777344 430.929688 409.855469 430.929688 C 397.949219 430.929688 397.929688 449.429688 409.855469 449.429688 " fill-opacity="1" fill-rule="nonzero"/><path fill="#385b4f" d="M 544.066406 442.546875 C 535.328125 448.140625 526.210938 451.921875 516.082031 454.179688 C 504.464844 456.769531 509.382812 474.613281 521 472.023438 C 532.511719 469.453125 543.472656 464.878906 553.402344 458.519531 C 563.394531 452.117188 554.128906 436.097656 544.066406 442.546875 " fill-opacity="1" fill-rule="nonzero"/><path fill="#385b4f" d="M 493.722656 525.902344 C 506.53125 525.328125 505.503906 505.640625 493.722656 506.167969 C 480.367188 506.769531 482.535156 526.398438 493.722656 525.902344 " fill-opacity="1" fill-rule="nonzero"/><path fill="#385b4f" d="M 524.902344 594.816406 C 534.828125 601.449219 544.101562 585.429688 534.238281 578.839844 C 524.152344 572.105469 518.25 561.78125 516.304688 549.945312 C 514.375 538.226562 496.546875 543.199219 498.464844 554.863281 C 501.199219 571.46875 511.019531 585.539062 524.902344 594.816406 " fill-opacity="1" fill-rule="nonzero"/><path fill="#385b4f" d="M 483.484375 613.226562 C 493.320312 622.25 506.125 606.554688 497.796875 598.910156 C 488.136719 590.042969 475.082031 605.511719 483.484375 613.226562 " fill-opacity="1" fill-rule="nonzero"/><path fill="#385b4f" d="M 613.929688 300.335938 C 623.847656 308.191406 629.679688 319.992188 627.546875 332.816406 C 625.605469 344.464844 643.433594 349.472656 645.386719 337.738281 C 648.554688 318.734375 642.382812 299.421875 627.011719 287.253906 C 617.777344 279.941406 604.597656 292.949219 613.929688 300.335938 " fill-opacity="1" fill-rule="nonzero"/><path fill="#385b4f" d="M 738.972656 291.960938 C 759.121094 264.566406 814.800781 282.390625 832.902344 300.496094 C 821.390625 298.757812 810.132812 298.511719 800.902344 299.472656 C 789.175781 300.691406 789.050781 319.203125 800.902344 317.96875 C 812.203125 316.796875 823.378906 317.035156 834.378906 319.5 C 821.167969 332.78125 760.199219 364.988281 738.132812 339.296875 C 727.527344 326.949219 729.746094 304.503906 738.972656 291.960938 Z M 765.835938 367.375 C 774.445312 368.453125 833.957031 356.019531 853.851562 325.875 C 863.945312 330.164062 874.417969 336.472656 877.226562 345.179688 C 880.859375 356.472656 898.726562 351.644531 895.058594 340.265625 C 889.910156 324.242188 875.519531 313.570312 858.554688 307.085938 C 854.652344 285.929688 821.308594 269.707031 804.511719 264.328125 C 699.90625 230.828125 682.039062 368.335938 765.835938 367.375 " fill-opacity="1" fill-rule="nonzero"/><path fill="#385b4f" d="M 894.566406 307.597656 C 907.371094 307.019531 906.351562 287.332031 894.566406 287.859375 C 881.214844 288.457031 883.375 308.097656 894.566406 307.597656 " fill-opacity="1" fill-rule="nonzero"/><path fill="#385b4f" d="M 731.4375 380.648438 C 723.484375 388.804688 719.117188 399.214844 718.671875 410.578125 C 718.199219 422.484375 736.703125 422.464844 737.171875 410.578125 C 737.421875 404.097656 740 398.359375 744.519531 393.734375 C 752.832031 385.207031 739.761719 372.109375 731.4375 380.648438 " fill-opacity="1" fill-rule="nonzero"/><path fill="#385b4f" d="M 670.714844 288.507812 C 674.863281 297.859375 675.425781 307.65625 671.296875 317.152344 C 666.5625 328.046875 683.105469 336.335938 687.859375 325.40625 C 693.867188 311.582031 694.339844 296.296875 688.191406 282.414062 C 683.402344 271.617188 665.875 277.582031 670.714844 288.507812 " fill-opacity="1" fill-rule="nonzero"/><path fill="#385b4f" d="M 972.273438 493.832031 C 960.367188 493.832031 960.351562 512.332031 972.273438 512.332031 C 984.179688 512.332031 984.195312 493.832031 972.273438 493.832031 " fill-opacity="1" fill-rule="nonzero"/><path fill="#385b4f" d="M 1088.300781 445.730469 C 1099.222656 434.621094 1122.507812 426.519531 1127.320312 446.699219 C 1134.707031 477.648438 1106.773438 498.246094 1079.667969 506.183594 C 1088.359375 494.125 1098.359375 482.90625 1109.621094 472.699219 C 1118.464844 464.6875 1105.347656 451.636719 1096.539062 459.613281 C 1086.980469 468.273438 1078.25 477.6875 1070.355469 487.714844 C 1072.996094 471.621094 1079.082031 455.105469 1088.300781 445.730469 Z M 1027.0625 580.710938 C 1024.695312 592.332031 1042.523438 597.304688 1044.902344 585.628906 C 1049.089844 565.011719 1056.296875 545.566406 1066.144531 527.605469 C 1092.144531 524.148438 1123.628906 512.230469 1137.5 488.542969 C 1147.324219 471.78125 1151.289062 446.023438 1139.78125 429.085938 C 1125.867188 408.59375 1097.371094 414.621094 1080.519531 427.980469 C 1056.855469 446.730469 1048.214844 486.710938 1051.210938 516.226562 C 1039.933594 536.199219 1031.707031 557.890625 1027.0625 580.710938 " fill-opacity="1" fill-rule="nonzero"/><path fill="#385b4f" d="M 1077.445312 405.652344 C 1079.5625 396.128906 1079.597656 386.78125 1077.671875 377.226562 C 1076.6875 372.324219 1070.871094 369.507812 1066.292969 370.761719 C 1061.191406 372.167969 1058.839844 377.230469 1059.832031 382.140625 C 1061.078125 388.320312 1060.964844 394.589844 1059.605469 400.734375 C 1057.035156 412.332031 1074.863281 417.292969 1077.445312 405.652344 " fill-opacity="1" fill-rule="nonzero"/><path fill="#385b4f" d="M 1019.144531 604.832031 C 1007.242188 604.832031 1007.21875 623.332031 1019.144531 623.332031 C 1031.050781 623.332031 1031.066406 604.832031 1019.144531 604.832031 " fill-opacity="1" fill-rule="nonzero"/><path fill="#385b4f" d="M 1024.03125 876.332031 C 1012.539062 879.394531 1017.414062 897.242188 1028.953125 894.171875 C 1044.132812 890.125 1059.328125 889.574219 1074.722656 892.789062 C 1086.34375 895.214844 1091.308594 877.386719 1079.644531 874.949219 C 1060.988281 871.050781 1042.460938 871.421875 1024.03125 876.332031 " fill-opacity="1" fill-rule="nonzero"/><path fill="#385b4f" d="M 980.894531 884.691406 C 964.769531 886.699219 931.453125 898.011719 939.492188 912.136719 C 941.738281 916.09375 948.167969 918.453125 952.144531 915.457031 C 960.644531 909.054688 970.246094 904.515625 980.894531 903.191406 C 995.339844 901.390625 990.648438 883.472656 980.894531 884.691406 " fill-opacity="1" fill-rule="nonzero"/><path fill="#385b4f" d="M 746.863281 797.964844 C 736.148438 792.925781 726.746094 808.871094 737.519531 813.9375 C 750.460938 820.011719 761.746094 828.738281 770.195312 840.339844 C 777.136719 849.871094 793.199219 840.648438 786.171875 831.003906 C 775.859375 816.839844 762.78125 805.4375 746.863281 797.964844 " fill-opacity="1" fill-rule="nonzero"/><path fill="#385b4f" d="M 613.398438 1078.902344 C 597.4375 1083.152344 584.152344 1093.046875 575.167969 1106.855469 C 568.65625 1116.867188 584.667969 1126.148438 591.144531 1116.195312 C 597.523438 1106.386719 607.054688 1099.742188 618.316406 1096.738281 C 629.808594 1093.675781 624.929688 1075.824219 613.398438 1078.902344 " fill-opacity="1" fill-rule="nonzero"/><path fill="#385b4f" d="M 916.769531 1183.285156 C 928.671875 1183.285156 928.691406 1164.785156 916.769531 1164.785156 C 904.863281 1164.785156 904.839844 1183.285156 916.769531 1183.285156 " fill-opacity="1" fill-rule="nonzero"/><path fill="#385b4f" d="M 1069.925781 984.738281 C 1047.828125 976.496094 1024.734375 978.414062 1001.769531 981.144531 C 990.09375 982.53125 989.953125 1001.046875 1001.769531 999.644531 C 1023.15625 997.097656 1044.375 994.882812 1065.007812 1002.574219 C 1076.179688 1006.742188 1081 988.863281 1069.925781 984.738281 " fill-opacity="1" fill-rule="nonzero"/><path fill="#385b4f" d="M 407.386719 569.066406 C 419.292969 569.066406 419.3125 550.566406 407.386719 550.566406 C 395.484375 550.566406 395.464844 569.066406 407.386719 569.066406 " fill-opacity="1" fill-rule="nonzero"/><path fill="#385b4f" d="M 786.03125 477.796875 C 797.9375 477.796875 797.957031 459.296875 786.03125 459.296875 C 774.128906 459.296875 774.105469 477.796875 786.03125 477.796875 " fill-opacity="1" fill-rule="nonzero"/><path fill="#385b4f" d="M 982.140625 397.625 C 994.042969 397.625 994.066406 379.128906 982.140625 379.128906 C 970.238281 379.128906 970.21875 397.625 982.140625 397.625 " fill-opacity="1" fill-rule="nonzero"/></svg>